<svg width="52" height="52" viewBox="0 0 52 52" fill="none" xmlns="http://www.w3.org/2000/svg">
<g filter="url(#filter0_d_134_7)">
<rect x="3" y="2" width="46" height="46" rx="4" fill="#FFE90A"/>
</g>
<g clip-path="url(#clip0_134_7)">
<path d="M23.6741 24.8585H24.8836L24.2788 23.1738L23.6741 24.8585Z" fill="#1A0C00"/>
<path d="M26.5 16C20.7008 16 16 19.6339 16 24.1171C16 27.0155 17.9657 29.5615 20.9219 30.9949C20.7613 31.5383 19.888 34.4932 19.8537 34.7258C19.8537 34.7258 19.8325 34.9 19.9476 34.9663C19.9861 34.9854 20.0282 34.9965 20.0712 34.9991C20.1143 35.0016 20.1574 34.9955 20.198 34.9812C20.5291 34.9357 24.0345 32.5253 24.6403 32.1105C25.2565 32.1944 25.8779 32.2357 26.5 32.2342C32.2992 32.2342 37 28.6003 37 24.1171C37 19.6339 32.2992 16 26.5 16ZM21.3035 22.857C21.2904 24.0053 21.3136 25.2129 21.2944 26.3434C21.2884 26.7047 21.0763 26.8126 20.7896 26.9155C20.7572 26.9268 20.7223 26.9292 20.6887 26.9225C20.3605 26.8591 20.099 26.7443 20.091 26.3444C20.0677 25.2149 20.098 24.0053 20.0819 22.857C19.8042 22.8461 19.4085 22.8679 19.151 22.857C18.7936 22.8342 18.5452 22.6115 18.5604 22.2799C18.5755 21.9483 18.7562 21.7097 19.1571 21.7038C20.1041 21.6899 21.2773 21.6899 22.2243 21.7038C22.6281 21.7097 22.8078 21.9493 22.82 22.2799C22.8321 22.6105 22.5877 22.8342 22.2313 22.857C21.9769 22.8679 21.5822 22.8461 21.3035 22.857ZM26.392 26.8611C26.2709 26.9151 26.1394 26.9432 26.0063 26.9433C25.7539 26.9433 25.5611 26.8443 25.5015 26.6809L25.1986 25.9108H23.355L23.0522 26.6809C22.9936 26.8423 22.8008 26.9433 22.5474 26.9433C22.4146 26.9433 22.2834 26.9152 22.1627 26.8611C21.9951 26.7859 21.8346 26.578 22.0183 26.0177L23.4712 22.2779C23.5321 22.1132 23.6412 21.9697 23.7849 21.8655C23.9285 21.7612 24.1004 21.7009 24.2788 21.6919C24.4572 21.7018 24.6287 21.7627 24.7722 21.867C24.9157 21.9713 25.025 22.1145 25.0865 22.2789L26.5343 26.0167C26.7191 26.578 26.5586 26.7898 26.392 26.8611ZM29.4531 26.8611H27.5096C27.3591 26.864 27.2135 26.8084 27.1047 26.7064C26.9959 26.6043 26.9328 26.4642 26.9291 26.3167V22.2858C26.9355 22.1293 27.0035 21.9812 27.1188 21.8727C27.234 21.7641 27.3877 21.7035 27.5475 21.7035C27.7073 21.7035 27.8609 21.7641 27.9762 21.8727C28.0914 21.9812 28.1594 22.1293 28.1659 22.2858V25.7752H29.4531C29.5289 25.7707 29.6047 25.7815 29.6761 25.8068C29.7474 25.8321 29.8127 25.8715 29.868 25.9225C29.9232 25.9735 29.9672 26.035 29.9973 26.1033C30.0274 26.1716 30.0429 26.2452 30.0429 26.3196C30.0429 26.394 30.0274 26.4676 29.9973 26.5359C29.9672 26.6042 29.9232 26.6658 29.868 26.7168C29.8127 26.7677 29.7474 26.8071 29.6761 26.8325C29.6047 26.8578 29.5289 26.8686 29.4531 26.8641V26.8611ZM34.1983 26.4137C34.1826 26.5308 34.1315 26.6407 34.0517 26.7293C33.9719 26.8178 33.8669 26.881 33.7503 26.9108C33.6337 26.9406 33.5106 26.9355 33.3969 26.8963C33.2832 26.8572 33.184 26.7856 33.112 26.6908L31.6914 24.8467L31.4814 25.0526V26.3483C31.4814 26.5059 31.4176 26.6569 31.304 26.7683C31.1904 26.8797 31.0363 26.9423 30.8757 26.9423C30.715 26.9423 30.5609 26.8797 30.4473 26.7683C30.3337 26.6569 30.2699 26.5059 30.2699 26.3483V22.2898C30.2699 22.1323 30.3337 21.9812 30.4473 21.8698C30.5609 21.7584 30.715 21.6958 30.8757 21.6958C31.0363 21.6958 31.1904 21.7584 31.304 21.8698C31.4176 21.9812 31.4814 22.1323 31.4814 22.2898V23.5628L33.1715 21.9057C33.2158 21.8628 33.2683 21.829 33.326 21.8062C33.3838 21.7834 33.4455 21.7722 33.5077 21.7731C33.659 21.7769 33.8035 21.8355 33.9134 21.9374C34.0234 22.0394 34.091 22.1775 34.1034 22.3254C34.1089 22.3914 34.0999 22.4578 34.0771 22.5201C34.0543 22.5824 34.0181 22.6392 33.9712 22.6867L32.588 24.0399L34.0792 25.9771C34.1757 26.1028 34.2175 26.2608 34.1953 26.4166L34.1983 26.4137Z" fill="#1A0C00"/>
<rect x="18" y="21" width="17" height="6" fill="#1A0C00"/>
</g>
<defs>
<filter id="filter0_d_134_7" x="0" y="0" width="52" height="52" filterUnits="userSpaceOnUse" color-interpolation-filters="sRGB">
<feFlood flood-opacity="0" result="BackgroundImageFix"/>
<feColorMatrix in="SourceAlpha" type="matrix" values="0 0 0 0 0 0 0 0 0 0 0 0 0 0 0 0 0 0 127 0" result="hardAlpha"/>
<feMorphology radius="1" operator="erode" in="SourceAlpha" result="effect1_dropShadow_134_7"/>
<feOffset dy="1"/>
<feGaussianBlur stdDeviation="2"/>
<feComposite in2="hardAlpha" operator="out"/>
<feColorMatrix type="matrix" values="0 0 0 0 0 0 0 0 0 0 0 0 0 0 0 0 0 0 0.25 0"/>
<feBlend mode="normal" in2="BackgroundImageFix" result="effect1_dropShadow_134_7"/>
<feBlend mode="normal" in="SourceGraphic" in2="effect1_dropShadow_134_7" result="shape"/>
</filter>
<clipPath id="clip0_134_7">
<rect width="21" height="19" fill="white" transform="translate(16 16)"/>
</clipPath>
</defs>
</svg>
